<svg width="129" height="168" viewBox="0 0 129 168" fill="none" xmlns="http://www.w3.org/2000/svg">
<path fill-rule="evenodd" clip-rule="evenodd" d="M52.2066 4.00262C53.6041 3.97793 54.6942 4.12608 55.8122 4.52117C56.9861 4.89157 57.9085 5.4595 59.1383 6.54599C60.5917 7.83002 60.9551 8.29919 61.4582 9.78077C61.8774 10.9907 62.0451 12.1513 62.0451 15.8305L65.3153 15.7071C67.1321 15.633 76.3557 15.2873 85.8029 14.9663C95.2501 14.6206 103.272 14.349 103.607 14.349C103.971 14.349 104.558 14.6206 104.949 14.9663C105.508 15.4601 105.648 15.8305 105.648 16.7689C105.648 17.4109 105.731 18.6208 106.067 20.9667L108.443 21.2383C110.259 21.4605 110.958 21.6581 111.461 22.0778C111.797 22.3742 112.076 22.8927 112.076 23.2384C112.076 23.5841 111.07 30.9673 107.548 55.4627L107.744 60.6482C107.828 63.5126 108.135 70.8464 108.443 76.9455C108.722 83.0694 109.141 91.5638 109.337 95.8356C109.644 103.071 109.645 103.663 109.197 104.305C108.946 104.676 108.443 105.021 108.079 105.095C107.744 105.145 105.899 105.268 100.477 105.491L100.281 106.775C100.169 107.589 99.8898 108.231 99.4985 108.552C99.0793 108.898 98.6041 109.022 97.7377 108.997C97.0948 108.972 91.5327 108.38 85.3836 107.688C74.7066 106.478 74.0079 106.429 69.7315 106.552C67.2718 106.651 59.0824 106.923 51.5637 107.194C44.0451 107.466 36.1631 107.762 34.0948 107.836C30.3215 108.009 30.3215 108.009 29.483 107.367C28.6724 106.75 28.6445 106.701 28.4768 101.392L25.9054 101.095C23.7532 100.848 23.2221 100.7 22.6911 100.157C22.3557 99.8112 22.0762 99.2679 22.0762 98.9222C22.0762 98.5765 23.0265 91.6625 24.2004 83.5386C25.3464 75.4393 26.4085 68.0314 26.5482 67.0684C26.688 66.056 26.688 63.2163 26.5482 60.2778C26.4085 57.4875 26.1569 52.3267 26.0172 48.7956C25.8495 45.2645 25.5141 38.2023 25.2905 33.1156C25.0669 28.0288 24.8153 22.6705 24.5917 18.5468L25.4023 17.806C26.0731 17.2133 26.4644 17.0652 27.4426 17.0652C28.1134 17.0652 29.8184 16.9911 31.2439 16.8923C33.8153 16.6948 33.8153 16.6948 33.8153 16.0281C33.8153 15.633 33.983 14.9663 34.1787 14.5465C34.4023 14.028 34.8495 13.6329 35.3805 13.46C35.9954 13.2625 36.8898 13.2625 38.9861 13.5094C40.5234 13.6822 41.8929 13.8304 42.0606 13.8551C42.2283 13.8551 42.424 13.0649 42.5638 12.0772C42.7035 10.9166 43.0389 9.75607 43.57 8.79305C44.0731 7.85472 44.9116 6.867 45.8619 6.12621C46.7004 5.4595 47.9861 4.71871 48.7687 4.47179C49.6352 4.17547 50.9209 4.00262 52.1787 4.00262H52.2066ZM48.3215 9.50914C47.9023 10.003 47.483 10.645 47.3712 10.966C47.2874 11.2623 47.2594 12.176 47.3153 12.9908L47.3992 14.4724C49.4675 14.5959 49.4954 14.5712 49.4954 13.8057C49.4954 13.2872 49.719 12.7933 50.1103 12.4476C50.4737 12.1266 51.0886 11.8797 51.5079 11.8797C51.9551 11.8797 52.4861 11.9537 52.7377 12.0772C52.9892 12.176 53.3805 12.5464 53.5762 12.9415C53.8836 13.46 53.9675 15.4108 53.9675 21.9544C53.9395 29.6092 53.9954 30.3006 54.4426 30.6957C54.7221 30.9426 55.2811 31.1402 55.7004 31.1402C56.1476 31.1402 56.7346 30.9179 57.042 30.6463C57.5731 30.1771 57.601 29.8561 57.5172 20.695C57.4613 11.3611 57.4613 11.2623 56.8184 10.2746C56.483 9.73138 55.7283 9.01528 55.1693 8.66958C54.4426 8.22511 53.688 8.02757 52.5979 7.97818C51.7315 7.95349 50.5855 8.07695 50.0544 8.2498C49.5234 8.44735 48.7408 8.99059 48.3215 9.50914V9.50914ZM35.8557 33.807C34.5979 42.7211 32.0544 60.5988 30.2097 73.4885C28.3929 86.4029 26.9675 96.9962 27.0513 97.0703C27.1072 97.1444 28.9799 97.3913 31.1321 97.6135C33.3122 97.8358 47.6787 99.4408 63.0513 101.145C78.424 102.848 92.0638 104.379 93.3774 104.503C94.6911 104.651 95.837 104.651 95.9209 104.552C96.0327 104.453 97.3184 95.8109 98.7998 85.3411C100.281 74.8713 102.797 57.0924 104.418 45.8324C106.011 34.5725 107.241 25.2632 107.129 25.1892C107.017 25.1151 104.613 24.7941 101.763 24.4978C98.9116 24.2014 89.1569 23.1149 80.101 22.1272C71.0172 21.1148 63.2749 20.2259 62.8277 20.1518L62.0731 20.0283C62.0731 29.1647 61.9892 30.5228 61.6538 31.3871C61.4023 32.0044 60.7315 32.918 60.1724 33.4366C59.6134 33.9551 58.6352 34.5478 58.0203 34.7453C57.2936 34.9922 56.2874 35.1157 55.1973 35.0416C53.9395 34.9922 53.2128 34.7947 52.3464 34.2762C51.7035 33.9058 50.837 33.1403 50.3898 32.5723L49.6352 31.5599L49.3557 18.6702C41.7811 17.8307 39.2656 17.5837 38.8743 17.559H38.1476L35.8557 33.807ZM82.0575 30.2512C82.8401 30.3006 84.0979 30.5969 84.8526 30.8932C85.6352 31.1895 86.7532 31.8316 87.3401 32.3254C87.9271 32.844 88.7377 33.807 89.129 34.4984C89.7718 35.5355 89.8836 36.0294 89.8836 37.7085C89.8836 39.2888 89.7439 39.8815 89.2408 40.7951C88.8774 41.3877 87.9551 42.4495 87.1724 43.1409C85.9985 44.178 85.8029 44.4743 85.9426 45.0423C86.0544 45.5114 86.6134 46.0053 87.7315 46.672C88.5979 47.1906 90.0234 48.3017 90.8619 49.1166C91.7283 49.9315 92.8184 51.339 93.3215 52.2279C93.8246 53.1416 94.4116 54.5737 94.6631 55.4133C94.9147 56.2529 95.0544 57.29 94.9706 57.7097C94.8867 58.1048 94.5793 58.7222 94.2718 59.0679C93.9923 59.3889 93.3215 59.8333 92.7905 60.0309C92.0078 60.3025 91.3929 60.3272 89.0451 60.0803C87.5079 59.9074 81.5544 59.2407 75.7687 58.5987C68.6414 57.7838 65.0638 57.29 64.5886 57.0183C64.2252 56.8208 63.6662 56.2282 63.4147 55.7343C63.1352 55.2651 62.9116 54.5984 62.9116 54.3021C62.9116 54.0058 63.3308 53.0181 63.806 52.1538C64.3091 51.2649 65.483 49.8327 66.4054 48.9684C67.3277 48.1042 68.7252 47.0424 69.4799 46.5979C70.2625 46.1535 71.8277 45.4621 72.9457 45.067C74.1755 44.6472 75.1259 44.1533 75.2936 43.8817C75.5172 43.4866 75.3495 43.0668 74.5669 41.9063C74.0078 41.0667 73.4209 39.8568 73.2532 39.19C73.0296 38.3011 73.0296 37.5356 73.2532 36.5232C73.4209 35.733 73.7283 34.77 73.952 34.3749C74.2035 33.9551 74.7905 33.2144 75.2936 32.7205C75.7967 32.2513 76.6352 31.6093 77.1662 31.313C77.7252 31.0414 78.7315 30.6463 79.4023 30.4734C80.101 30.3006 81.3029 30.2018 82.0575 30.2512V30.2512ZM39.6569 61.2902C40.3836 61.2902 42.3681 61.4384 44.0451 61.6359C45.7501 61.8335 47.3433 62.0063 47.6228 62.0063C47.8743 62.0063 48.4333 62.3026 48.7967 62.6236C49.2718 63.0434 49.4954 63.5126 49.4954 64.0558C49.4954 64.5497 49.2439 65.0682 48.8805 65.4139C48.4613 65.809 47.9302 65.9819 47.2594 65.9572C46.7283 65.9572 44.5203 65.7349 42.3681 65.488C38.8464 65.0682 38.3992 64.9695 37.8401 64.3768C37.4768 64.0311 37.1973 63.4879 37.1693 63.1669C37.1693 62.8459 37.4209 62.2779 37.7563 61.9322C38.2594 61.389 38.5948 61.2902 39.6569 61.2902ZM55.5047 62.994C55.952 62.994 59.837 63.3891 64.1134 63.8583C68.3619 64.3521 72.0793 64.8213 72.3588 64.9448C72.6103 65.0682 73.0296 65.5374 73.2252 66.0066C73.5327 66.6486 73.5327 66.9696 73.3091 67.3894C73.1134 67.6857 72.6942 68.1302 72.3588 68.3277C71.7718 68.6734 71.0172 68.6487 63.1911 67.7845C55.4488 66.9449 54.6103 66.7967 54.0513 66.2782C53.688 65.9819 53.3805 65.3646 53.3526 64.9448C53.3246 64.4015 53.5203 63.9817 53.9675 63.5867C54.3588 63.241 54.9737 62.994 55.5047 62.994V62.994ZM79.9613 65.7103C80.4364 65.7103 83.7905 66.056 87.452 66.4757C91.4488 66.9202 94.3277 67.3647 94.719 67.5869C95.0544 67.7845 95.4178 68.2536 95.5016 68.624C95.6134 68.9944 95.5575 69.5624 95.3619 69.8587C95.1942 70.155 94.7749 70.5748 94.4395 70.797C93.8526 71.1427 93.1818 71.118 86.3898 70.3772C79.7097 69.6364 78.9271 69.513 78.3681 68.9944C77.9768 68.6487 77.7252 68.1549 77.7532 67.6857C77.7532 67.2412 78.0327 66.698 78.424 66.3276C78.8433 65.9572 79.4302 65.7103 79.9613 65.7103ZM38.1476 69.9081C38.3153 69.9081 45.3308 70.6488 68.9209 73.2169L69.7035 73.9083C70.1228 74.3034 70.4582 74.896 70.4582 75.217C70.4582 75.5627 70.1507 76.1307 69.7874 76.4517C69.3122 76.8961 68.7811 77.069 68.1103 77.069C67.5513 77.069 60.5358 76.3529 52.5141 75.464C40.8867 74.1799 37.7563 73.7602 37.1973 73.4145C36.6942 73.0688 36.4985 72.6984 36.4426 71.9329C36.3867 71.0686 36.4985 70.8217 37.1134 70.4019C37.5047 70.1303 37.9799 69.9081 38.1476 69.9081ZM76.8029 74.1305C76.9426 74.1305 80.5482 74.5256 84.8526 74.9948C90.778 75.6615 92.8464 75.9825 93.3774 76.3282C93.9364 76.6739 94.0762 76.9702 94.0762 77.8098C94.0762 78.6987 93.9364 78.9704 92.511 79.9087L85.0482 79.0938C80.9395 78.6494 77.1942 78.1802 76.6911 78.0567C76.188 77.9333 75.601 77.5629 75.3495 77.2665C75.1259 76.9702 74.9582 76.4517 74.9582 76.1307C74.9582 75.8097 75.3495 75.2417 75.7687 74.8466C76.2159 74.4516 76.6631 74.1305 76.8029 74.1305ZM36.9178 78.5753C37.3091 78.5753 40.0762 78.8469 43.0669 79.1679C46.0855 79.5136 48.9364 79.8593 49.4395 79.9087C49.9426 79.9828 50.5855 80.3038 50.9209 80.6001C51.2283 80.8964 51.452 81.489 51.452 81.8841C51.452 82.3039 51.2842 82.8225 51.0886 83.02C50.9209 83.2422 50.5016 83.5385 50.1942 83.6867C49.7749 83.8842 47.9861 83.7608 43.0669 83.2422C39.4613 82.8225 36.219 82.378 35.8836 82.2051C35.5203 82.0323 35.101 81.5631 34.9333 81.1433C34.6818 80.5754 34.7097 80.2544 35.0172 79.7112C35.2128 79.3161 35.5762 78.8963 35.7998 78.7975C36.0513 78.674 36.5544 78.5753 36.9178 78.5753V78.5753ZM56.5669 80.7729C57.07 80.7729 64.952 81.6125 74.0917 82.6496C89.4364 84.3534 90.778 84.551 91.365 85.0448C91.7842 85.3905 92.0079 85.8844 92.0079 86.4029C91.9799 86.9462 91.7563 87.4153 91.2252 87.8598C90.5544 88.4524 90.3029 88.5018 89.1849 88.3784C88.5141 88.3043 80.9116 87.44 72.3588 86.477C63.778 85.514 56.5948 84.7238 56.3433 84.7238C56.1197 84.7238 55.6165 84.4522 55.2252 84.1065C54.8339 83.7608 54.5265 83.1929 54.4985 82.7978C54.4985 82.4027 54.7501 81.81 55.0855 81.4397C55.5047 80.9705 55.9519 80.7729 56.5669 80.7729ZM35.4364 87.2178C35.7159 87.2178 41.9209 87.8845 49.2159 88.6994C56.5389 89.5142 62.8557 90.2303 63.2749 90.3044C63.6942 90.3538 64.2252 90.6748 64.4488 90.9711C64.7004 91.2674 64.8681 91.8601 64.8681 92.2552C64.8681 92.6996 64.5886 93.2429 64.2532 93.5639C63.8339 93.959 63.3029 94.1318 62.6321 94.1318C62.101 94.1318 55.6165 93.4404 48.2377 92.6255C36.0793 91.2674 34.7656 91.0699 34.2066 90.576C33.7594 90.2303 33.5637 89.7612 33.5917 89.2426C33.5917 88.7241 33.8433 88.1808 34.2625 87.8104C34.6538 87.4894 35.1569 87.2178 35.4364 87.2178Z" fill="black" fill-opacity="0.12"/>
<path fill-rule="evenodd" clip-rule="evenodd" d="M49.2066 0.00261927C50.6041 -0.0220737 51.6942 0.126084 52.8122 0.521171C53.9861 0.891565 54.9085 1.4595 56.1383 2.54599C57.5917 3.83002 57.9551 4.29919 58.4582 5.78077C58.8774 6.99072 59.0451 8.15129 59.0451 11.8305L62.3153 11.7071C64.1321 11.633 73.3557 11.2873 82.8029 10.9663C92.2501 10.6206 100.272 10.349 100.607 10.349C100.971 10.349 101.558 10.6206 101.949 10.9663C102.508 11.4601 102.648 11.8305 102.648 12.7689C102.648 13.4109 102.731 14.6208 103.067 16.9667L105.443 17.2383C107.259 17.4605 107.958 17.6581 108.461 18.0778C108.797 18.3742 109.076 18.8927 109.076 19.2384C109.076 19.5841 108.07 26.9673 104.548 51.4627L104.744 56.6482C104.828 59.5126 105.135 66.8464 105.443 72.9455C105.722 79.0694 106.141 87.5638 106.337 91.8356C106.644 99.0707 106.645 99.6633 106.197 100.305C105.946 100.676 105.443 101.021 105.079 101.095C104.744 101.145 102.899 101.268 97.4768 101.491L97.2811 102.775C97.1693 103.589 96.8898 104.231 96.4985 104.552C96.0793 104.898 95.6041 105.022 94.7377 104.997C94.0948 104.972 88.5327 104.38 82.3836 103.688C71.7066 102.478 71.0079 102.429 66.7315 102.552C64.2718 102.651 56.0824 102.923 48.5637 103.194C41.0451 103.466 33.1631 103.762 31.0948 103.836C27.3215 104.009 27.3215 104.009 26.483 103.367C25.6724 102.75 25.6445 102.701 25.4768 97.3915L22.9054 97.0952C20.7532 96.8483 20.2221 96.7001 19.6911 96.1569C19.3557 95.8112 19.0762 95.2679 19.0762 94.9222C19.0762 94.5765 20.0265 87.6625 21.2004 79.5386C22.3464 71.4393 23.4085 64.0314 23.5482 63.0684C23.688 62.056 23.688 59.2163 23.5482 56.2778C23.4085 53.4875 23.1569 48.3267 23.0172 44.7956C22.8495 41.2645 22.5141 34.2023 22.2905 29.1156C22.0669 24.0288 21.8153 18.6705 21.5917 14.5468L22.4023 13.806C23.0731 13.2133 23.4644 13.0652 24.4426 13.0652C25.1134 13.0652 26.8184 12.9911 28.2439 12.8923C30.8153 12.6948 30.8153 12.6948 30.8153 12.0281C30.8153 11.633 30.983 10.9663 31.1787 10.5465C31.4023 10.028 31.8495 9.63286 32.3805 9.46001C32.9954 9.26247 33.8898 9.26247 35.9861 9.5094C37.5234 9.68225 38.8929 9.83041 39.0606 9.8551C39.2283 9.8551 39.424 9.06493 39.5638 8.07721C39.7035 6.91664 40.0389 5.75607 40.57 4.79305C41.0731 3.85472 41.9116 2.867 42.8619 2.12621C43.7004 1.4595 44.9861 0.718715 45.7687 0.471785C46.6352 0.17547 47.9209 0.00261927 49.1787 0.00261927H49.2066ZM45.3215 5.50914C44.9023 6.003 44.483 6.64502 44.3712 6.96603C44.2874 7.26234 44.2594 8.17598 44.3153 8.99085L44.3992 10.4724C46.4675 10.5959 46.4954 10.5712 46.4954 9.80571C46.4954 9.28716 46.719 8.7933 47.1103 8.4476C47.4737 8.1266 48.0886 7.87966 48.5079 7.87966C48.9551 7.87966 49.4861 7.95374 49.7377 8.07721C49.9892 8.17598 50.3805 8.54637 50.5762 8.94146C50.8836 9.46001 50.9675 11.4108 50.9675 17.9544C50.9395 25.6092 50.9954 26.3006 51.4426 26.6957C51.7221 26.9426 52.2811 27.1402 52.7004 27.1402C53.1476 27.1402 53.7346 26.9179 54.042 26.6463C54.5731 26.1771 54.601 25.8561 54.5172 16.695C54.4613 7.36111 54.4613 7.26234 53.8184 6.27462C53.483 5.73138 52.7283 5.01528 52.1693 4.66958C51.4426 4.22511 50.688 4.02757 49.5979 3.97818C48.7315 3.95349 47.5855 4.07695 47.0544 4.2498C46.5234 4.44735 45.7408 4.99059 45.3215 5.50914V5.50914ZM32.8557 29.807C31.5979 38.7211 29.0544 56.5988 27.2097 69.4885C25.3929 82.4029 23.9675 92.9962 24.0513 93.0703C24.1072 93.1444 25.9799 93.3913 28.1321 93.6135C30.3122 93.8358 44.6787 95.4408 60.0513 97.1446C75.424 98.8484 89.0638 100.379 90.3774 100.503C91.6911 100.651 92.837 100.651 92.9209 100.552C93.0327 100.453 94.3184 91.8109 95.7998 81.3411C97.2811 70.8713 99.7967 53.0924 101.418 41.8324C103.011 30.5725 104.241 21.2632 104.129 21.1892C104.017 21.1151 101.613 20.7941 98.7625 20.4978C95.9116 20.2014 86.1569 19.1149 77.101 18.1272C68.0172 17.1148 60.2749 16.2259 59.8277 16.1518L59.0731 16.0283C59.0731 25.1647 58.9892 26.5228 58.6538 27.3871C58.4023 28.0044 57.7315 28.918 57.1724 29.4366C56.6134 29.9551 55.6352 30.5478 55.0203 30.7453C54.2936 30.9922 53.2874 31.1157 52.1973 31.0416C50.9395 30.9922 50.2128 30.7947 49.3464 30.2762C48.7035 29.9058 47.837 29.1403 47.3898 28.5723L46.6352 27.5599L46.3557 14.6702C38.7811 13.8307 36.2656 13.5837 35.8743 13.559H35.1476L32.8557 29.807ZM79.0575 26.2512C79.8401 26.3006 81.0979 26.5969 81.8526 26.8932C82.6352 27.1895 83.7532 27.8316 84.3401 28.3254C84.9271 28.844 85.7377 29.807 86.129 30.4984C86.7718 31.5355 86.8836 32.0294 86.8836 33.7085C86.8836 35.2888 86.7439 35.8815 86.2408 36.7951C85.8774 37.3877 84.9551 38.4495 84.1724 39.1409C82.9985 40.178 82.8029 40.4743 82.9426 41.0423C83.0544 41.5114 83.6134 42.0053 84.7315 42.672C85.5979 43.1906 87.0234 44.3017 87.8619 45.1166C88.7283 45.9315 89.8184 47.339 90.3215 48.2279C90.8246 49.1416 91.4116 50.5737 91.6631 51.4133C91.9147 52.2529 92.0544 53.29 91.9706 53.7097C91.8867 54.1048 91.5793 54.7222 91.2718 55.0679C90.9923 55.3889 90.3215 55.8333 89.7905 56.0309C89.0078 56.3025 88.3929 56.3272 86.0451 56.0803C84.5079 55.9074 78.5544 55.2407 72.7687 54.5987C65.6414 53.7838 62.0638 53.29 61.5886 53.0183C61.2252 52.8208 60.6662 52.2282 60.4147 51.7343C60.1352 51.2651 59.9116 50.5984 59.9116 50.3021C59.9116 50.0058 60.3308 49.0181 60.806 48.1538C61.3091 47.2649 62.483 45.8327 63.4054 44.9684C64.3277 44.1042 65.7252 43.0424 66.4799 42.5979C67.2625 42.1535 68.8277 41.4621 69.9457 41.067C71.1755 40.6472 72.1259 40.1533 72.2936 39.8817C72.5172 39.4866 72.3495 39.0668 71.5669 37.9063C71.0078 37.0667 70.4209 35.8568 70.2532 35.19C70.0296 34.3011 70.0296 33.5356 70.2532 32.5232C70.4209 31.733 70.7283 30.77 70.952 30.3749C71.2035 29.9551 71.7905 29.2144 72.2936 28.7205C72.7967 28.2513 73.6352 27.6093 74.1662 27.313C74.7252 27.0414 75.7315 26.6463 76.4023 26.4734C77.101 26.3006 78.3029 26.2018 79.0575 26.2512V26.2512ZM36.6569 57.2902C37.3836 57.2902 39.3681 57.4384 41.0451 57.6359C42.7501 57.8335 44.3433 58.0063 44.6228 58.0063C44.8743 58.0063 45.4333 58.3026 45.7967 58.6236C46.2718 59.0434 46.4954 59.5126 46.4954 60.0558C46.4954 60.5497 46.2439 61.0682 45.8805 61.4139C45.4613 61.809 44.9302 61.9819 44.2594 61.9572C43.7283 61.9572 41.5203 61.7349 39.3681 61.488C35.8464 61.0682 35.3992 60.9695 34.8401 60.3768C34.4768 60.0311 34.1973 59.4879 34.1693 59.1669C34.1693 58.8459 34.4209 58.2779 34.7563 57.9322C35.2594 57.389 35.5948 57.2902 36.6569 57.2902ZM52.5047 58.994C52.952 58.994 56.837 59.3891 61.1134 59.8583C65.3619 60.3521 69.0793 60.8213 69.3588 60.9448C69.6103 61.0682 70.0296 61.5374 70.2252 62.0066C70.5327 62.6486 70.5327 62.9696 70.3091 63.3894C70.1134 63.6857 69.6942 64.1302 69.3588 64.3277C68.7718 64.6734 68.0172 64.6487 60.1911 63.7845C52.4488 62.9449 51.6103 62.7967 51.0513 62.2782C50.688 61.9819 50.3805 61.3646 50.3526 60.9448C50.3246 60.4015 50.5203 59.9817 50.9675 59.5867C51.3588 59.241 51.9737 58.994 52.5047 58.994V58.994ZM76.9613 61.7103C77.4364 61.7103 80.7905 62.056 84.452 62.4757C88.4488 62.9202 91.3277 63.3647 91.719 63.5869C92.0544 63.7845 92.4178 64.2536 92.5016 64.624C92.6134 64.9944 92.5575 65.5624 92.3619 65.8587C92.1942 66.155 91.7749 66.5748 91.4395 66.797C90.8526 67.1427 90.1818 67.118 83.3898 66.3772C76.7097 65.6364 75.9271 65.513 75.3681 64.9944C74.9768 64.6487 74.7252 64.1549 74.7532 63.6857C74.7532 63.2412 75.0327 62.698 75.424 62.3276C75.8433 61.9572 76.4302 61.7103 76.9613 61.7103ZM35.1476 65.9081C35.3153 65.9081 42.3308 66.6488 65.9209 69.2169L66.7035 69.9083C67.1228 70.3034 67.4582 70.896 67.4582 71.217C67.4582 71.5627 67.1507 72.1307 66.7874 72.4517C66.3122 72.8961 65.7811 73.069 65.1103 73.069C64.5513 73.069 57.5358 72.3529 49.5141 71.464C37.8867 70.1799 34.7563 69.7602 34.1973 69.4145C33.6942 69.0688 33.4985 68.6984 33.4426 67.9329C33.3867 67.0686 33.4985 66.8217 34.1134 66.4019C34.5047 66.1303 34.9799 65.9081 35.1476 65.9081ZM73.8029 70.1305C73.9426 70.1305 77.5482 70.5256 81.8526 70.9948C87.778 71.6615 89.8464 71.9825 90.3774 72.3282C90.9364 72.6739 91.0762 72.9702 91.0762 73.8098C91.0762 74.6987 90.9364 74.9704 89.511 75.9087L82.0482 75.0938C77.9395 74.6494 74.1942 74.1802 73.6911 74.0567C73.188 73.9333 72.601 73.5629 72.3495 73.2665C72.1259 72.9702 71.9582 72.4517 71.9582 72.1307C71.9582 71.8097 72.3495 71.2417 72.7687 70.8466C73.2159 70.4516 73.6631 70.1305 73.8029 70.1305ZM33.9178 74.5753C34.3091 74.5753 37.0762 74.8469 40.0669 75.1679C43.0855 75.5136 45.9364 75.8593 46.4395 75.9087C46.9426 75.9828 47.5855 76.3038 47.9209 76.6001C48.2283 76.8964 48.452 77.489 48.452 77.8841C48.452 78.3039 48.2842 78.8225 48.0886 79.02C47.9209 79.2422 47.5016 79.5385 47.1942 79.6867C46.7749 79.8842 44.9861 79.7608 40.0669 79.2422C36.4613 78.8225 33.219 78.378 32.8836 78.2051C32.5203 78.0323 32.101 77.5631 31.9333 77.1433C31.6818 76.5754 31.7097 76.2544 32.0172 75.7112C32.2128 75.3161 32.5762 74.8963 32.7998 74.7975C33.0513 74.674 33.5544 74.5753 33.9178 74.5753V74.5753ZM53.5669 76.7729C54.07 76.7729 61.952 77.6125 71.0917 78.6496C86.4364 80.3534 87.778 80.551 88.365 81.0448C88.7842 81.3905 89.0079 81.8844 89.0079 82.4029C88.9799 82.9462 88.7563 83.4153 88.2252 83.8598C87.5544 84.4524 87.3029 84.5018 86.1849 84.3784C85.5141 84.3043 77.9116 83.44 69.3588 82.477C60.778 81.514 53.5948 80.7238 53.3433 80.7238C53.1197 80.7238 52.6165 80.4522 52.2252 80.1065C51.8339 79.7608 51.5265 79.1929 51.4985 78.7978C51.4985 78.4027 51.7501 77.81 52.0855 77.4397C52.5047 76.9705 52.9519 76.7729 53.5669 76.7729ZM32.4364 83.2178C32.7159 83.2178 38.9209 83.8845 46.2159 84.6994C53.5389 85.5142 59.8557 86.2303 60.2749 86.3044C60.6942 86.3538 61.2252 86.6748 61.4488 86.9711C61.7004 87.2674 61.8681 87.8601 61.8681 88.2552C61.8681 88.6996 61.5886 89.2429 61.2532 89.5639C60.8339 89.959 60.3029 90.1318 59.6321 90.1318C59.101 90.1318 52.6165 89.4404 45.2377 88.6255C33.0793 87.2674 31.7656 87.0699 31.2066 86.576C30.7594 86.2303 30.5637 85.7612 30.5917 85.2426C30.5917 84.7241 30.8433 84.1808 31.2625 83.8104C31.6538 83.4894 32.1569 83.2178 32.4364 83.2178Z" fill="#00B682"/>
<path d="M7.612 137.22C5.91067 137.22 4.49533 136.883 3.366 136.208C2.23667 135.533 1.39333 134.595 0.836 133.392C0.278667 132.175 0 130.752 0 129.124C0 127.54 0.286 126.147 0.858 124.944C1.43 123.727 2.28067 122.781 3.41 122.106C4.53933 121.417 5.93267 121.072 7.59 121.072C8.71933 121.072 9.65067 121.189 10.384 121.424C11.132 121.644 11.6893 121.945 12.056 122.326C12.4227 122.707 12.606 123.14 12.606 123.624C12.606 124.167 12.3713 124.621 11.902 124.988C11.4327 125.355 10.7507 125.538 9.856 125.538C9.856 125.054 9.78267 124.577 9.636 124.108C9.48933 123.639 9.24 123.25 8.888 122.942C8.536 122.634 8.052 122.48 7.436 122.48C6.512 122.48 5.77133 122.744 5.214 123.272C4.67133 123.785 4.28267 124.533 4.048 125.516C3.81333 126.499 3.696 127.701 3.696 129.124C3.696 130.532 3.83533 131.705 4.114 132.644C4.40733 133.583 4.87667 134.287 5.522 134.756C6.182 135.225 7.05467 135.46 8.14 135.46C8.85867 135.46 9.47467 135.357 9.988 135.152C10.5013 134.932 10.934 134.661 11.286 134.338C11.6527 134.015 11.9607 133.693 12.21 133.37C12.3273 133.458 12.4153 133.59 12.474 133.766C12.5473 133.942 12.584 134.125 12.584 134.316C12.584 134.624 12.496 134.947 12.32 135.284C12.1587 135.621 11.8873 135.937 11.506 136.23C11.1247 136.523 10.6113 136.765 9.966 136.956C9.33533 137.132 8.55067 137.22 7.612 137.22Z" fill="#00B682"/>
<path d="M19.1613 137.22C18.0173 137.22 17.1373 136.868 16.5213 136.164C15.9053 135.445 15.5973 134.345 15.5973 132.864V127.936C15.5973 127.511 15.546 127.188 15.4433 126.968C15.3406 126.733 15.1793 126.579 14.9593 126.506C14.7393 126.418 14.4533 126.374 14.1013 126.374H14.0573V125.208H18.9413V132.248C18.9413 132.879 18.9853 133.429 19.0733 133.898C19.176 134.353 19.352 134.712 19.6013 134.976C19.8506 135.225 20.188 135.35 20.6133 135.35C21.0826 135.35 21.464 135.218 21.7573 134.954C22.0506 134.675 22.2633 134.287 22.3953 133.788C22.542 133.275 22.6153 132.681 22.6153 132.006V127.782C22.6153 127.357 22.542 127.049 22.3953 126.858C22.2486 126.653 22.058 126.521 21.8233 126.462C21.5886 126.403 21.3246 126.374 21.0313 126.374H20.9653V125.208H25.9593V134.448C25.9593 134.873 26.018 135.189 26.1353 135.394C26.2673 135.585 26.4433 135.709 26.6633 135.768C26.898 135.812 27.1546 135.834 27.4333 135.834H27.6093V137H23.2313L22.7473 135.438H22.6373C22.4173 135.819 22.1753 136.127 21.9113 136.362C21.662 136.597 21.3906 136.78 21.0973 136.912C20.804 137.029 20.496 137.11 20.1733 137.154C19.8506 137.198 19.5133 137.22 19.1613 137.22Z" fill="#00B682"/>
<path d="M28.5991 137V135.834H28.6651C29.0025 135.834 29.2958 135.797 29.5451 135.724C29.7945 135.651 29.9925 135.504 30.1391 135.284C30.2858 135.049 30.3591 134.705 30.3591 134.25V127.87C30.3591 127.43 30.2931 127.107 30.1611 126.902C30.0291 126.682 29.8458 126.543 29.6111 126.484C29.3765 126.411 29.0978 126.374 28.7751 126.374H28.7091V125.208H33.1531L33.5931 126.924H33.7031C33.8938 126.484 34.1138 126.117 34.3631 125.824C34.6125 125.531 34.9278 125.311 35.3091 125.164C35.7051 125.017 36.2038 124.944 36.8051 124.944C37.6705 124.944 38.3085 125.098 38.7191 125.406C39.1298 125.714 39.3351 126.154 39.3351 126.726C39.3351 127.401 39.0858 127.929 38.5871 128.31C38.1031 128.677 37.4211 128.86 36.5411 128.86C36.5411 128.449 36.5045 128.112 36.4311 127.848C36.3725 127.584 36.2625 127.386 36.1011 127.254C35.9545 127.107 35.7418 127.034 35.4631 127.034C35.0818 127.034 34.7738 127.166 34.5391 127.43C34.3045 127.694 34.1285 128.024 34.0111 128.42C33.8938 128.801 33.8131 129.19 33.7691 129.586C33.7251 129.982 33.7031 130.305 33.7031 130.554V134.36C33.7031 134.785 33.7691 135.108 33.9011 135.328C34.0331 135.533 34.2165 135.673 34.4511 135.746C34.6858 135.805 34.9498 135.834 35.2431 135.834H35.9471V137H28.5991Z" fill="#00B682"/>
<path d="M40.1148 137V135.834H40.1808C40.5181 135.834 40.8114 135.797 41.0608 135.724C41.3101 135.651 41.5081 135.504 41.6548 135.284C41.8014 135.049 41.8748 134.705 41.8748 134.25V127.87C41.8748 127.43 41.8088 127.107 41.6768 126.902C41.5448 126.682 41.3614 126.543 41.1268 126.484C40.8921 126.411 40.6134 126.374 40.2908 126.374H40.2248V125.208H44.6688L45.1088 126.924H45.2188C45.4094 126.484 45.6294 126.117 45.8788 125.824C46.1281 125.531 46.4434 125.311 46.8248 125.164C47.2208 125.017 47.7194 124.944 48.3208 124.944C49.1861 124.944 49.8241 125.098 50.2348 125.406C50.6454 125.714 50.8508 126.154 50.8508 126.726C50.8508 127.401 50.6014 127.929 50.1028 128.31C49.6188 128.677 48.9368 128.86 48.0568 128.86C48.0568 128.449 48.0201 128.112 47.9468 127.848C47.8881 127.584 47.7781 127.386 47.6168 127.254C47.4701 127.107 47.2574 127.034 46.9788 127.034C46.5974 127.034 46.2894 127.166 46.0548 127.43C45.8201 127.694 45.6441 128.024 45.5268 128.42C45.4094 128.801 45.3288 129.19 45.2848 129.586C45.2408 129.982 45.2188 130.305 45.2188 130.554V134.36C45.2188 134.785 45.2848 135.108 45.4168 135.328C45.5488 135.533 45.7321 135.673 45.9668 135.746C46.2014 135.805 46.4654 135.834 46.7588 135.834H47.4628V137H40.1148Z" fill="#00B682"/>
<path d="M51.5644 137V135.834H51.8284C52.0484 135.834 52.2757 135.805 52.5104 135.746C52.7597 135.673 52.9651 135.533 53.1264 135.328C53.3024 135.123 53.3904 134.815 53.3904 134.404V127.716C53.3904 127.32 53.3024 127.027 53.1264 126.836C52.9504 126.645 52.7377 126.521 52.4884 126.462C52.2537 126.403 52.0337 126.374 51.8284 126.374H51.5644V125.208H56.7344V134.404C56.7344 134.815 56.8151 135.123 56.9764 135.328C57.1524 135.533 57.3651 135.673 57.6144 135.746C57.8637 135.805 58.0911 135.834 58.2964 135.834H58.5604V137H51.5644ZM54.9524 123.228C54.4244 123.228 53.9771 123.103 53.6104 122.854C53.2584 122.59 53.0824 122.187 53.0824 121.644C53.0824 121.087 53.2657 120.683 53.6324 120.434C53.9991 120.185 54.4464 120.06 54.9744 120.06C55.4731 120.06 55.9057 120.185 56.2724 120.434C56.6537 120.683 56.8444 121.087 56.8444 121.644C56.8444 122.187 56.6537 122.59 56.2724 122.854C55.9057 123.103 55.4657 123.228 54.9524 123.228Z" fill="#00B682"/>
<path d="M65.4148 137.22C64.3441 137.22 63.3981 137.029 62.5768 136.648C61.7554 136.252 61.1101 135.614 60.6408 134.734C60.1861 133.839 59.9588 132.644 59.9588 131.148C59.9588 129.564 60.1934 128.325 60.6628 127.43C61.1468 126.521 61.7921 125.875 62.5988 125.494C63.4201 125.113 64.3368 124.922 65.3488 124.922C66.3021 124.922 67.1014 125.025 67.7468 125.23C68.3921 125.435 68.8761 125.714 69.1988 126.066C69.5361 126.403 69.7048 126.792 69.7048 127.232C69.7048 127.54 69.6241 127.841 69.4628 128.134C69.3161 128.413 69.0374 128.647 68.6268 128.838C68.2161 129.014 67.6294 129.102 66.8668 129.102C66.8668 128.589 66.8228 128.119 66.7348 127.694C66.6468 127.269 66.5001 126.924 66.2948 126.66C66.0894 126.396 65.8034 126.264 65.4368 126.264C65.0114 126.264 64.6374 126.411 64.3148 126.704C64.0068 126.983 63.7648 127.474 63.5888 128.178C63.4274 128.882 63.3468 129.865 63.3468 131.126C63.3468 132.109 63.4348 132.93 63.6108 133.59C63.8014 134.25 64.0874 134.749 64.4688 135.086C64.8501 135.409 65.3488 135.57 65.9648 135.57C66.4781 135.57 66.9401 135.497 67.3508 135.35C67.7761 135.189 68.1428 134.976 68.4508 134.712C68.7588 134.433 68.9934 134.125 69.1548 133.788C69.3308 133.891 69.4628 134.037 69.5508 134.228C69.6388 134.404 69.6828 134.595 69.6828 134.8C69.6828 135.167 69.5288 135.541 69.2208 135.922C68.9274 136.289 68.4654 136.597 67.8348 136.846C67.2188 137.095 66.4121 137.22 65.4148 137.22Z" fill="#00B682"/>
<path d="M76.2023 137.22C75.0583 137.22 74.1783 136.868 73.5623 136.164C72.9463 135.445 72.6383 134.345 72.6383 132.864V127.936C72.6383 127.511 72.587 127.188 72.4843 126.968C72.3817 126.733 72.2203 126.579 72.0003 126.506C71.7803 126.418 71.4943 126.374 71.1423 126.374H71.0983V125.208H75.9823V132.248C75.9823 132.879 76.0263 133.429 76.1143 133.898C76.217 134.353 76.393 134.712 76.6423 134.976C76.8917 135.225 77.229 135.35 77.6543 135.35C78.1237 135.35 78.505 135.218 78.7983 134.954C79.0917 134.675 79.3043 134.287 79.4363 133.788C79.583 133.275 79.6563 132.681 79.6563 132.006V127.782C79.6563 127.357 79.583 127.049 79.4363 126.858C79.2897 126.653 79.099 126.521 78.8643 126.462C78.6297 126.403 78.3657 126.374 78.0723 126.374H78.0063V125.208H83.0003V134.448C83.0003 134.873 83.059 135.189 83.1763 135.394C83.3083 135.585 83.4843 135.709 83.7043 135.768C83.939 135.812 84.1957 135.834 84.4743 135.834H84.6503V137H80.2723L79.7883 135.438H79.6783C79.4583 135.819 79.2163 136.127 78.9523 136.362C78.703 136.597 78.4317 136.78 78.1383 136.912C77.845 137.029 77.537 137.11 77.2143 137.154C76.8917 137.198 76.5543 137.22 76.2023 137.22Z" fill="#00B682"/>
<path d="M85.5742 137V135.834H85.8382C86.0582 135.834 86.2855 135.805 86.5202 135.746C86.7695 135.673 86.9748 135.533 87.1362 135.328C87.3122 135.123 87.4002 134.815 87.4002 134.404V122.788C87.4002 122.392 87.3122 122.099 87.1362 121.908C86.9602 121.717 86.7475 121.593 86.4982 121.534C86.2635 121.475 86.0435 121.446 85.8382 121.446H85.5742V120.28H90.7442V134.404C90.7442 134.815 90.8248 135.123 90.9862 135.328C91.1622 135.533 91.3748 135.673 91.6242 135.746C91.8735 135.805 92.1008 135.834 92.3062 135.834H92.5702V137H85.5742Z" fill="#00B682"/>
<path d="M98.6105 137.22C97.4665 137.22 96.5865 136.868 95.9705 136.164C95.3545 135.445 95.0465 134.345 95.0465 132.864V127.936C95.0465 127.511 94.9952 127.188 94.8925 126.968C94.7899 126.733 94.6285 126.579 94.4085 126.506C94.1885 126.418 93.9025 126.374 93.5505 126.374H93.5065V125.208H98.3905V132.248C98.3905 132.879 98.4345 133.429 98.5225 133.898C98.6252 134.353 98.8012 134.712 99.0505 134.976C99.2999 135.225 99.6372 135.35 100.063 135.35C100.532 135.35 100.913 135.218 101.207 134.954C101.5 134.675 101.713 134.287 101.845 133.788C101.991 133.275 102.065 132.681 102.065 132.006V127.782C102.065 127.357 101.991 127.049 101.845 126.858C101.698 126.653 101.507 126.521 101.273 126.462C101.038 126.403 100.774 126.374 100.481 126.374H100.415V125.208H105.409V134.448C105.409 134.873 105.467 135.189 105.585 135.394C105.717 135.585 105.893 135.709 106.113 135.768C106.347 135.812 106.604 135.834 106.883 135.834H107.059V137H102.681L102.197 135.438H102.087C101.867 135.819 101.625 136.127 101.361 136.362C101.111 136.597 100.84 136.78 100.547 136.912C100.253 137.029 99.9452 137.11 99.6225 137.154C99.2999 137.198 98.9625 137.22 98.6105 137.22Z" fill="#00B682"/>
<path d="M108.048 137V135.834H108.092C108.43 135.834 108.723 135.797 108.972 135.724C109.236 135.651 109.442 135.511 109.588 135.306C109.735 135.086 109.808 134.756 109.808 134.316V127.738C109.808 127.327 109.742 127.019 109.61 126.814C109.478 126.609 109.295 126.477 109.06 126.418C108.826 126.345 108.547 126.308 108.224 126.308H108.158V125.208H112.778L113.064 126.77H113.174C113.468 126.213 113.783 125.809 114.12 125.56C114.472 125.296 114.846 125.127 115.242 125.054C115.653 124.966 116.086 124.922 116.54 124.922C117.083 124.922 117.567 124.988 117.992 125.12C118.432 125.237 118.806 125.435 119.114 125.714C119.437 125.978 119.686 126.33 119.862 126.77H120.06C120.354 126.213 120.684 125.809 121.05 125.56C121.417 125.296 121.813 125.127 122.238 125.054C122.664 124.966 123.104 124.922 123.558 124.922C124.688 124.922 125.575 125.259 126.22 125.934C126.866 126.609 127.188 127.687 127.188 129.168V134.272C127.188 134.727 127.24 135.064 127.342 135.284C127.46 135.504 127.628 135.651 127.848 135.724C128.068 135.797 128.34 135.834 128.662 135.834H128.728V137H123.844V129.762C123.844 128.809 123.712 128.075 123.448 127.562C123.184 127.049 122.73 126.792 122.084 126.792C121.63 126.792 121.256 126.939 120.962 127.232C120.684 127.511 120.478 127.892 120.346 128.376C120.229 128.845 120.17 129.366 120.17 129.938V134.272C120.17 134.712 120.222 135.049 120.324 135.284C120.442 135.504 120.61 135.651 120.83 135.724C121.05 135.797 121.322 135.834 121.644 135.834H121.71V137H116.826V129.762C116.826 128.809 116.694 128.075 116.43 127.562C116.166 127.049 115.712 126.792 115.066 126.792C114.582 126.792 114.201 126.953 113.922 127.276C113.644 127.584 113.446 128.002 113.328 128.53C113.211 129.043 113.152 129.601 113.152 130.202V134.404C113.152 134.815 113.218 135.123 113.35 135.328C113.482 135.533 113.666 135.673 113.9 135.746C114.135 135.805 114.414 135.834 114.736 135.834H114.802V137H108.048Z" fill="#00B682"/>
<path d="M40.2879 153.514C40.1999 153.235 40.0753 153.023 39.9139 152.876C39.7526 152.715 39.5839 152.605 39.4079 152.546C39.2319 152.487 39.0706 152.458 38.9239 152.458H38.4179V151.292H45.6779V152.458H44.6659C44.4606 152.458 44.2626 152.509 44.0719 152.612C43.8959 152.715 43.8079 152.905 43.8079 153.184C43.8079 153.272 43.8153 153.375 43.8299 153.492C43.8593 153.609 43.8886 153.727 43.9179 153.844C43.9473 153.947 43.9766 154.042 44.0059 154.13L46.2499 160.906C46.3086 161.067 46.3673 161.265 46.4259 161.5C46.4993 161.72 46.5653 161.962 46.6239 162.226C46.6826 162.475 46.7339 162.725 46.7779 162.974C46.8366 163.209 46.8733 163.429 46.8879 163.634C46.9319 163.385 46.9906 163.106 47.0639 162.798C47.1373 162.49 47.2179 162.175 47.3059 161.852C47.4086 161.529 47.5039 161.236 47.5919 160.972L49.8579 154.284C49.9019 154.181 49.9386 154.064 49.9679 153.932C50.0119 153.785 50.0486 153.646 50.0779 153.514C50.1073 153.382 50.1219 153.279 50.1219 153.206C50.1219 152.957 50.0413 152.773 49.8799 152.656C49.7186 152.524 49.5059 152.458 49.2419 152.458H48.0979V151.292H53.7739V152.458H52.7179C52.5859 152.458 52.4686 152.502 52.3659 152.59C52.2633 152.663 52.1606 152.817 52.0579 153.052C51.9553 153.272 51.8233 153.609 51.6619 154.064L47.1739 167H44.9739L40.2879 153.514Z" fill="#00B682"/>
<path d="M54.1533 167V165.834H54.4173C54.6373 165.834 54.8646 165.805 55.0993 165.746C55.3486 165.673 55.5539 165.533 55.7153 165.328C55.8913 165.123 55.9793 164.815 55.9793 164.404V157.716C55.9793 157.32 55.8913 157.027 55.7153 156.836C55.5393 156.645 55.3266 156.521 55.0773 156.462C54.8426 156.403 54.6226 156.374 54.4173 156.374H54.1533V155.208H59.3233V164.404C59.3233 164.815 59.4039 165.123 59.5653 165.328C59.7413 165.533 59.9539 165.673 60.2033 165.746C60.4526 165.805 60.6799 165.834 60.8853 165.834H61.1493V167H54.1533ZM57.5413 153.228C57.0133 153.228 56.5659 153.103 56.1993 152.854C55.8473 152.59 55.6713 152.187 55.6713 151.644C55.6713 151.087 55.8546 150.683 56.2213 150.434C56.5879 150.185 57.0353 150.06 57.5633 150.06C58.0619 150.06 58.4946 150.185 58.8613 150.434C59.2426 150.683 59.4333 151.087 59.4333 151.644C59.4333 152.187 59.2426 152.59 58.8613 152.854C58.4946 153.103 58.0546 153.228 57.5413 153.228Z" fill="#00B682"/>
<path d="M66.8596 167.22C65.877 167.22 65.0923 166.963 64.5056 166.45C63.919 165.937 63.6256 165.035 63.6256 163.744V156.704H61.9756V155.582C62.445 155.582 62.863 155.487 63.2296 155.296C63.611 155.105 63.9116 154.893 64.1316 154.658C64.3516 154.423 64.5496 154.13 64.7256 153.778C64.9016 153.411 65.041 152.979 65.1436 152.48H66.9696V155.208H69.7856V156.704H66.9696V163.524C66.9696 164.184 67.0796 164.668 67.2996 164.976C67.5343 165.284 67.9083 165.438 68.4216 165.438C68.715 165.438 68.9863 165.423 69.2356 165.394C69.4996 165.35 69.749 165.299 69.9836 165.24V166.67C69.749 166.773 69.3603 166.89 68.8176 167.022C68.2896 167.154 67.637 167.22 66.8596 167.22Z" fill="#00B682"/>
<path d="M74.8736 167.22C74.2283 167.22 73.6416 167.095 73.1136 166.846C72.6003 166.582 72.1897 166.186 71.8817 165.658C71.5737 165.115 71.4196 164.441 71.4196 163.634C71.4196 162.446 71.8303 161.566 72.6516 160.994C73.473 160.422 74.705 160.107 76.3476 160.048L78.1516 159.982V158.772C78.1516 158.273 78.1223 157.841 78.0637 157.474C78.005 157.093 77.8803 156.799 77.6897 156.594C77.499 156.374 77.1983 156.264 76.7877 156.264C76.421 156.264 76.1276 156.367 75.9076 156.572C75.6876 156.777 75.5336 157.063 75.4456 157.43C75.3576 157.782 75.3137 158.185 75.3137 158.64C74.331 158.64 73.5903 158.53 73.0917 158.31C72.593 158.09 72.3437 157.709 72.3437 157.166C72.3437 156.623 72.549 156.191 72.9596 155.868C73.3703 155.545 73.9203 155.311 74.6096 155.164C75.299 155.003 76.0543 154.922 76.8756 154.922C77.4036 154.922 77.8803 154.966 78.3056 155.054C78.7456 155.142 79.1343 155.281 79.4716 155.472C79.8236 155.648 80.1243 155.883 80.3736 156.176C80.799 155.765 81.283 155.457 81.8257 155.252C82.3683 155.032 82.9623 154.922 83.6077 154.922C84.6783 154.922 85.595 155.12 86.3577 155.516C87.1203 155.912 87.707 156.506 88.1177 157.298C88.543 158.075 88.7557 159.051 88.7557 160.224V161.346H81.5396C81.569 162.329 81.701 163.135 81.9356 163.766C82.1703 164.382 82.5003 164.837 82.9257 165.13C83.3657 165.423 83.8863 165.57 84.4876 165.57C85.001 165.57 85.4556 165.497 85.8516 165.35C86.2623 165.189 86.6143 164.976 86.9076 164.712C87.201 164.433 87.4283 164.125 87.5897 163.788C87.795 163.891 87.9416 164.037 88.0296 164.228C88.1323 164.404 88.1836 164.617 88.1836 164.866C88.1836 165.277 88.0296 165.665 87.7216 166.032C87.4283 166.384 86.9663 166.67 86.3356 166.89C85.705 167.11 84.891 167.22 83.8937 167.22C82.823 167.22 81.8916 167.037 81.0996 166.67C80.3076 166.303 79.677 165.783 79.2076 165.108C78.885 165.592 78.5037 165.995 78.0637 166.318C77.6237 166.626 77.1323 166.853 76.5897 167C76.0617 167.147 75.4896 167.22 74.8736 167.22ZM76.0836 165.614C76.509 165.614 76.8756 165.504 77.1836 165.284C77.4916 165.049 77.7263 164.719 77.8876 164.294C78.0636 163.869 78.1516 163.37 78.1516 162.798V161.148L77.1617 161.214C76.575 161.243 76.113 161.361 75.7757 161.566C75.4383 161.757 75.1963 162.035 75.0497 162.402C74.903 162.754 74.8297 163.194 74.8297 163.722C74.8297 164.133 74.8736 164.485 74.9616 164.778C75.0496 165.057 75.189 165.269 75.3796 165.416C75.5703 165.548 75.805 165.614 76.0836 165.614ZM85.3896 159.938C85.3896 159.175 85.3237 158.53 85.1917 158.002C85.0743 157.459 84.891 157.049 84.6416 156.77C84.3923 156.491 84.0623 156.352 83.6516 156.352C83.2556 156.352 82.9036 156.491 82.5956 156.77C82.2876 157.034 82.0457 157.437 81.8697 157.98C81.7083 158.508 81.613 159.161 81.5836 159.938H85.3896Z" fill="#00B682"/>
</svg>
